<?xml version="1.0" encoding="UTF-8" standalone="no"?>
<!-- Created with Inkscape (http://www.inkscape.org/) -->

<svg
   version="1.1"
   id="svg2"
   xml:space="preserve"
   width="166.92267"
   height="166.92133"
   viewBox="0 0 166.92267 166.92133"
   sodipodi:docname="g_logo..svg"
   inkscape:version="1.1 (c68e22c387, 2021-05-23)"
   xmlns:inkscape="http://www.inkscape.org/namespaces/inkscape"
   xmlns:sodipodi="http://sodipodi.sourceforge.net/DTD/sodipodi-0.dtd"
   xmlns="http://www.w3.org/2000/svg"
   xmlns:svg="http://www.w3.org/2000/svg"><defs
     id="defs6"><linearGradient
       x1="0"
       y1="0"
       x2="1"
       y2="0"
       gradientUnits="userSpaceOnUse"
       gradientTransform="matrix(39.920898,0,0,-39.920898,389.93448,249.3109)"
       spreadMethod="pad"
       id="linearGradient30"><stop
         style="stop-opacity:1;stop-color:#ffb1b8"
         offset="0"
         id="stop24" /><stop
         style="stop-opacity:1;stop-color:#ba1b72"
         offset="0.69394808"
         id="stop26" /><stop
         style="stop-opacity:1;stop-color:#ba1b72"
         offset="1"
         id="stop28" /></linearGradient><linearGradient
       x1="0"
       y1="0"
       x2="1"
       y2="0"
       gradientUnits="userSpaceOnUse"
       gradientTransform="matrix(47.078098,0,0,-47.078098,354.4682,266.32574)"
       spreadMethod="pad"
       id="linearGradient50"><stop
         style="stop-opacity:1;stop-color:#e70e72"
         offset="0"
         id="stop46" /><stop
         style="stop-opacity:1;stop-color:#5b0e72"
         offset="1"
         id="stop48" /></linearGradient><linearGradient
       x1="0"
       y1="0"
       x2="1"
       y2="0"
       gradientUnits="userSpaceOnUse"
       gradientTransform="matrix(-40.782711,0,0,40.782711,442.32901,232.28979)"
       spreadMethod="pad"
       id="linearGradient70"><stop
         style="stop-opacity:1;stop-color:#e70e72"
         offset="0"
         id="stop66" /><stop
         style="stop-opacity:1;stop-color:#5b0e72"
         offset="1"
         id="stop68" /></linearGradient><linearGradient
       x1="0"
       y1="0"
       x2="1"
       y2="0"
       gradientUnits="userSpaceOnUse"
       gradientTransform="matrix(41.0126,0,0,-41.0126,394.26151,280.23276)"
       spreadMethod="pad"
       id="linearGradient92"><stop
         style="stop-opacity:1;stop-color:#ffb1b8"
         offset="0"
         id="stop86" /><stop
         style="stop-opacity:1;stop-color:#ba1b72"
         offset="0.69394808"
         id="stop88" /><stop
         style="stop-opacity:1;stop-color:#ba1b72"
         offset="1"
         id="stop90" /></linearGradient><linearGradient
       x1="0"
       y1="0"
       x2="1"
       y2="0"
       gradientUnits="userSpaceOnUse"
       gradientTransform="matrix(46.297188,0,0,-46.297188,361.647,226.4794)"
       spreadMethod="pad"
       id="linearGradient114"><stop
         style="stop-opacity:1;stop-color:#ffb1b8"
         offset="0"
         id="stop108" /><stop
         style="stop-opacity:1;stop-color:#ba1b72"
         offset="0.69394808"
         id="stop110" /><stop
         style="stop-opacity:1;stop-color:#ba1b72"
         offset="1"
         id="stop112" /></linearGradient><clipPath
       clipPathUnits="userSpaceOnUse"
       id="clipPath124"><path
         d="M 0,500 H 500 V 0 H 0 Z"
         id="path122" /></clipPath><clipPath
       clipPathUnits="userSpaceOnUse"
       id="clipPath132"><path
         d="m 361.647,250.018 h 8.453 v -11.926 h -8.453 z"
         id="path130" /></clipPath><clipPath
       clipPathUnits="userSpaceOnUse"
       id="clipPath148"><path
         d="m 401.546,219.611 h 10.4 V 210.9 h -10.4 z"
         id="path146" /></clipPath><clipPath
       clipPathUnits="userSpaceOnUse"
       id="clipPath164"><path
         d="m 418.211,253.68 h 11.644 v -8.738 h -11.644 z"
         id="path162" /></clipPath><clipPath
       clipPathUnits="userSpaceOnUse"
       id="clipPath180"><path
         d="m 390.725,289.812 h 10.821 v -9.031 h -10.821 z"
         id="path178" /></clipPath><linearGradient
       x1="0"
       y1="0"
       x2="1"
       y2="0"
       gradientUnits="userSpaceOnUse"
       gradientTransform="matrix(72.17395,0,0,-72.17395,70.02932,250.01849)"
       spreadMethod="pad"
       id="linearGradient206"><stop
         style="stop-opacity:1;stop-color:#037771"
         offset="0"
         id="stop202" /><stop
         style="stop-opacity:1;stop-color:#00c96c"
         offset="1"
         id="stop204" /></linearGradient><clipPath
       clipPathUnits="userSpaceOnUse"
       id="clipPath216"><path
         d="M 0,500 H 500 V 0 H 0 Z"
         id="path214" /></clipPath><clipPath
       clipPathUnits="userSpaceOnUse"
       id="clipPath224"><path
         d="M 95.2844,257.864 H 121.957 V 237.732 H 95.2844 Z"
         id="path222" /></clipPath><linearGradient
       x1="0"
       y1="0"
       x2="1"
       y2="0"
       gradientUnits="userSpaceOnUse"
       gradientTransform="matrix(63.449017,0,0,-63.449017,366.67407,389.05786)"
       spreadMethod="pad"
       id="linearGradient252"><stop
         style="stop-opacity:1;stop-color:#4354cf"
         offset="0"
         id="stop246" /><stop
         style="stop-opacity:1;stop-color:#682292"
         offset="0.491567"
         id="stop248" /><stop
         style="stop-opacity:1;stop-color:#c32e78"
         offset="1"
         id="stop250" /></linearGradient><linearGradient
       x1="0"
       y1="0"
       x2="1"
       y2="0"
       gradientUnits="userSpaceOnUse"
       gradientTransform="matrix(-2.5511413,73.05513,73.05513,2.5511413,252.83252,365.4393)"
       spreadMethod="pad"
       id="linearGradient274"><stop
         style="stop-opacity:1;stop-color:#ff1a7b"
         offset="0"
         id="stop268" /><stop
         style="stop-opacity:1;stop-color:#ff654d"
         offset="0.426587"
         id="stop270" /><stop
         style="stop-opacity:1;stop-color:#ffe100"
         offset="1"
         id="stop272" /></linearGradient><linearGradient
       x1="0"
       y1="0"
       x2="1"
       y2="0"
       gradientUnits="userSpaceOnUse"
       gradientTransform="matrix(-23.073616,41.625908,41.625908,23.073616,275.89453,362.66397)"
       spreadMethod="pad"
       id="linearGradient296"><stop
         style="stop-opacity:1;stop-color:#ff1a7b"
         offset="0"
         id="stop290" /><stop
         style="stop-opacity:1;stop-color:#ff654d"
         offset="0.426587"
         id="stop292" /><stop
         style="stop-opacity:1;stop-color:#ffe100"
         offset="1"
         id="stop294" /></linearGradient><linearGradient
       x1="0"
       y1="0"
       x2="1"
       y2="0"
       gradientUnits="userSpaceOnUse"
       gradientTransform="matrix(-7.5856767,72.172897,72.172897,7.5856767,240.71117,385.30417)"
       spreadMethod="pad"
       id="linearGradient318"><stop
         style="stop-opacity:1;stop-color:#ff1a7b"
         offset="0"
         id="stop312" /><stop
         style="stop-opacity:1;stop-color:#ff654d"
         offset="0.426587"
         id="stop314" /><stop
         style="stop-opacity:1;stop-color:#ffe100"
         offset="1"
         id="stop316" /></linearGradient><clipPath
       clipPathUnits="userSpaceOnUse"
       id="clipPath328"><path
         d="M 0,500 H 500 V 0 H 0 Z"
         id="path326" /></clipPath><linearGradient
       x1="0"
       y1="0"
       x2="1"
       y2="0"
       gradientUnits="userSpaceOnUse"
       gradientTransform="matrix(44.311661,76.750046,76.750046,-44.311661,238.68953,71.873177)"
       spreadMethod="pad"
       id="linearGradient356"><stop
         style="stop-opacity:1;stop-color:#004170"
         offset="0"
         id="stop350" /><stop
         style="stop-opacity:1;stop-color:#00947d"
         offset="0.950107"
         id="stop352" /><stop
         style="stop-opacity:1;stop-color:#00947d"
         offset="1"
         id="stop354" /></linearGradient><radialGradient
       fx="0"
       fy="0"
       cx="0"
       cy="0"
       r="1"
       gradientUnits="userSpaceOnUse"
       gradientTransform="matrix(62.595398,0,0,-62.595398,250,250)"
       spreadMethod="pad"
       id="radialGradient382"><stop
         style="stop-opacity:1;stop-color:#8ae3ff"
         offset="0"
         id="stop372" /><stop
         style="stop-opacity:1;stop-color:#8ae3ff"
         offset="0.11738309"
         id="stop374" /><stop
         style="stop-opacity:1;stop-color:#00adff"
         offset="0.898479"
         id="stop376" /><stop
         style="stop-opacity:1;stop-color:#00adff"
         offset="0.9007382"
         id="stop378" /><stop
         style="stop-opacity:1;stop-color:#00adff"
         offset="1"
         id="stop380" /></radialGradient><clipPath
       clipPathUnits="userSpaceOnUse"
       id="clipPath392"><path
         d="M 0,500 H 500 V 0 H 0 Z"
         id="path390" /></clipPath><linearGradient
       x1="0"
       y1="0"
       x2="1"
       y2="0"
       gradientUnits="userSpaceOnUse"
       gradientTransform="matrix(49.845562,-86.335045,-86.335045,-49.845562,78.460915,152.99666)"
       spreadMethod="pad"
       id="linearGradient510"><stop
         style="stop-opacity:1;stop-color:#00c6ef"
         offset="0"
         id="stop506" /><stop
         style="stop-opacity:1;stop-color:#641aaf"
         offset="1"
         id="stop508" /></linearGradient><linearGradient
       x1="0"
       y1="0"
       x2="1"
       y2="0"
       gradientUnits="userSpaceOnUse"
       gradientTransform="matrix(46.532551,80.596741,80.596741,-46.532551,373.7742,66.640526)"
       spreadMethod="pad"
       id="linearGradient532"><stop
         style="stop-opacity:1;stop-color:#ff1a7b"
         offset="0"
         id="stop526" /><stop
         style="stop-opacity:1;stop-color:#ff654d"
         offset="0.426587"
         id="stop528" /><stop
         style="stop-opacity:1;stop-color:#ffe100"
         offset="1"
         id="stop530" /></linearGradient><radialGradient
       fx="0"
       fy="0"
       cx="0"
       cy="0"
       r="1"
       gradientUnits="userSpaceOnUse"
       gradientTransform="matrix(62.595398,0,0,-62.595398,250,250)"
       spreadMethod="pad"
       id="radialGradient382-2"><stop
         style="stop-opacity:1;stop-color:#8ae3ff"
         offset="0"
         id="stop372-9" /><stop
         style="stop-opacity:1;stop-color:#8ae3ff"
         offset="0.11738309"
         id="stop374-9" /><stop
         style="stop-opacity:1;stop-color:#00adff"
         offset="0.898479"
         id="stop376-7" /><stop
         style="stop-opacity:1;stop-color:#00adff"
         offset="0.9007382"
         id="stop378-7" /><stop
         style="stop-opacity:1;stop-color:#00adff"
         offset="1"
         id="stop380-3" /></radialGradient></defs><sodipodi:namedview
     id="namedview4"
     pagecolor="#505050"
     bordercolor="#eeeeee"
     borderopacity="1"
     inkscape:pageshadow="0"
     inkscape:pageopacity="0"
     inkscape:pagecheckerboard="0"
     showgrid="false"
     fit-margin-top="0"
     fit-margin-left="0"
     fit-margin-right="0"
     fit-margin-bottom="0"
     inkscape:zoom="1.038"
     inkscape:cx="61.657035"
     inkscape:cy="160.40463"
     inkscape:window-width="1600"
     inkscape:window-height="877"
     inkscape:window-x="1358"
     inkscape:window-y="-8"
     inkscape:window-maximized="1"
     inkscape:current-layer="g8" /><g
     id="g8"
     inkscape:groupmode="layer"
     inkscape:label="5389591"
     transform="matrix(1.3333333,0,0,-1.3333333,-272.03001,493.86528)"><g
       id="g360"
       transform="translate(16.618512,57.803973)"><g
         id="g362"><g
           id="g368"><g
             id="g370"><path
               d="m 243.633,306.229 c 0,-2.983 2.063,-5.485 4.835,-6.174 v 0 -11.181 h 3.063 v 11.181 c 2.773,0.689 4.836,3.191 4.836,6.174 v 0 c 0,3.51 -2.856,6.366 -6.367,6.366 v 0 c -3.511,0 -6.367,-2.856 -6.367,-6.366 m 3.062,0 c 0,1.821 1.483,3.304 3.305,3.304 v 0 c 1.821,0 3.304,-1.483 3.304,-3.304 v 0 c 0,-1.823 -1.483,-3.305 -3.304,-3.305 v 0 c -1.822,0 -3.305,1.482 -3.305,3.305 m 38.562,-11.968 c -1.203,-1.202 -1.864,-2.801 -1.864,-4.501 v 0 c 0,-1.177 0.324,-2.302 0.918,-3.284 v 0 l -7.906,-7.905 2.166,-2.166 7.904,7.906 c 0.982,-0.595 2.107,-0.918 3.284,-0.918 v 0 c 1.701,0 3.3,0.661 4.502,1.866 v 0 c 1.204,1.201 1.866,2.8 1.866,4.501 v 0 c 0,1.7 -0.662,3.299 -1.866,4.501 v 0 c -1.201,1.204 -2.801,1.866 -4.502,1.866 v 0 c -1.7,0 -3.299,-0.662 -4.502,-1.866 m 2.166,-6.838 c -0.625,0.625 -0.968,1.454 -0.968,2.337 v 0 c 0,0.882 0.343,1.711 0.968,2.336 v 0 c 0.624,0.624 1.454,0.968 2.336,0.968 v 0 c 0.882,0 1.712,-0.344 2.338,-0.968 v 0 c 0.623,-0.625 0.966,-1.454 0.966,-2.336 v 0 c 0,-0.883 -0.343,-1.712 -0.966,-2.337 v 0 h -10e-4 c -0.624,-0.624 -1.48,-0.935 -2.336,-0.935 v 0 c -0.856,0 -1.712,0.311 -2.337,0.935 m -81.685,6.838 c -1.202,-1.202 -1.865,-2.801 -1.865,-4.501 v 0 c 0,-1.701 0.663,-3.3 1.865,-4.501 v 0 c 1.203,-1.205 2.802,-1.866 4.503,-1.866 v 0 c 1.176,0 2.301,0.324 3.283,0.918 v 0 l 7.905,-7.906 2.166,2.166 -7.906,7.905 c 0.594,0.982 0.918,2.107 0.918,3.284 v 0 c 0,1.7 -0.662,3.299 -1.864,4.501 v 0 h -0.001 c -1.202,1.204 -2.801,1.866 -4.501,1.866 v 0 c -1.701,0 -3.3,-0.662 -4.503,-1.866 m 2.166,-6.838 c -0.624,0.625 -0.968,1.454 -0.968,2.337 v 0 c 0,0.882 0.344,1.711 0.968,2.336 v 0 c 0.624,0.624 1.454,0.968 2.337,0.968 v 0 c 0.882,0 1.711,-0.344 2.335,-0.968 v 0 c 0.625,-0.625 0.969,-1.454 0.969,-2.336 v 0 c 0,-0.883 -0.344,-1.712 -0.969,-2.337 v 0 c -0.624,-0.624 -1.48,-0.935 -2.336,-0.935 v 0 c -0.856,0 -1.712,0.311 -2.336,0.935 m 8.605,-37.424 c 0,-18.466 15.024,-33.49 33.491,-33.49 v 0 c 18.466,0 33.491,15.024 33.491,33.49 v 0 l -0.194,6.09 H 250 v -8.731 h 24.619 C 273.296,234.942 262.759,225.241 250,225.241 v 0 c -13.652,0 -24.76,11.107 -24.76,24.758 v 0 c 0,13.653 11.108,24.76 24.76,24.76 v 0 c 7.914,0 15.164,-3.649 19.89,-10.013 v 0 l 7.01,5.208 c -6.298,8.475 -16.353,13.537 -26.9,13.537 v 0 c -18.467,0 -33.491,-15.025 -33.491,-33.492 m 83.546,1.532 h -11.181 v -3.063 h 11.181 c 0.689,-2.771 3.192,-4.834 6.174,-4.834 v 0 c 3.511,0 6.367,2.856 6.367,6.366 v 0 c 0,3.511 -2.856,6.368 -6.367,6.368 v 0 c -2.983,0 -5.485,-2.064 -6.174,-4.837 M 302.924,250 c 0,1.823 1.482,3.305 3.305,3.305 v 0 c 1.822,0 3.304,-1.482 3.304,-3.305 v 0 c 0,-1.821 -1.482,-3.304 -3.304,-3.304 v 0 c -1.823,0 -3.305,1.483 -3.305,3.304 m -115.52,0 c 0,-3.51 2.857,-6.366 6.368,-6.366 v 0 c 2.981,0 5.483,2.063 6.172,4.834 v 0 h 11.182 v 3.063 h -11.181 c -0.689,2.773 -3.192,4.837 -6.173,4.837 v 0 c -3.511,0 -6.368,-2.857 -6.368,-6.368 m 3.063,0 c 0,1.823 1.482,3.305 3.305,3.305 v 0 c 1.821,0 3.304,-1.482 3.304,-3.305 v 0 c 0,-1.821 -1.483,-3.304 -3.304,-3.304 v 0 c -1.823,0 -3.305,1.483 -3.305,3.304 m 85.938,-28.57 7.907,-7.907 c -1.473,-2.448 -1.163,-5.676 0.945,-7.785 v 0 c 1.241,-1.241 2.872,-1.861 4.502,-1.861 v 0 c 1.63,0 3.261,0.62 4.502,1.861 v 0 c 2.482,2.481 2.483,6.522 0,9.006 v 0 c -2.107,2.107 -5.336,2.418 -7.785,0.945 v 0 l -7.905,7.906 z m 11.018,-13.526 c -1.288,1.288 -1.288,3.385 0,4.673 v 0 c 1.289,1.288 3.385,1.288 4.673,0 v 0 c 1.289,-1.288 1.289,-3.385 10e-4,-4.673 v 0 c -0.644,-0.643 -1.491,-0.965 -2.337,-0.965 v 0 c -0.847,0 -1.693,0.322 -2.337,0.965 m -73.901,7.785 c -2.446,1.473 -5.675,1.162 -7.784,-0.945 v 0 c -2.482,-2.484 -2.482,-6.525 0,-9.006 v 0 c 1.241,-1.241 2.872,-1.861 4.503,-1.861 v 0 c 1.63,0 3.26,0.62 4.501,1.861 v 0 c 1.203,1.203 1.865,2.802 1.865,4.503 v 0 c 0,1.176 -0.324,2.301 -0.918,3.283 v 0 l 7.906,7.906 -2.166,2.165 z m -5.618,-7.785 c -1.288,1.288 -1.288,3.385 0,4.673 v 0 c 1.288,1.288 3.384,1.288 4.672,0 v 0 c 0.625,-0.624 0.969,-1.454 0.969,-2.336 v 0 c 0,-0.884 -0.344,-1.713 -0.969,-2.337 v 0 c -0.644,-0.643 -1.49,-0.965 -2.336,-0.965 v 0 c -0.846,0 -1.692,0.322 -2.336,0.965 m 40.564,3.222 v -11.182 c -2.772,-0.688 -4.835,-3.191 -4.835,-6.172 v 0 c 0,-3.511 2.856,-6.368 6.367,-6.368 v 0 c 3.511,0 6.367,2.857 6.367,6.368 v 0 c 0,2.981 -2.063,5.484 -4.836,6.172 v 0 11.182 z m -1.773,-17.354 c 0,1.821 1.483,3.305 3.305,3.305 v 0 c 1.821,0 3.304,-1.484 3.304,-3.305 v 0 c 0,-1.822 -1.483,-3.304 -3.304,-3.304 v 0 c -1.822,0 -3.305,1.482 -3.305,3.304"
               style="fill:url(#radialGradient382-2);stroke:none"
               id="path384" /></g></g></g></g></g></svg>
